<mxfile host="Electron" modified="2024-03-29T12:22:55.650Z" agent="Mozilla/5.0 (X11; Linux x86_64) AppleWebKit/537.36 (KHTML, like Gecko) draw.io/24.1.0 Chrome/120.0.6099.109 Electron/28.1.0 Safari/537.36" etag="WpTbFIqQb4V45UzwiepC" version="24.1.0" type="device">
  <diagram name="Page-1" id="-cMVqA2Gkwa5aGeDibPs">
    <mxGraphModel dx="2015" dy="992" grid="1" gridSize="10" guides="1" tooltips="1" connect="1" arrows="1" fold="1" page="0" pageScale="1" pageWidth="413" pageHeight="291" math="1" shadow="0">
      <root>
        <mxCell id="0" />
        <mxCell id="1" parent="0" />
        <mxCell id="GCO7xrDp6TmdYOZJOnFd-2" value="&lt;font style=&quot;font-size: 10px;&quot;&gt;$$PGenPu$$&lt;/font&gt;" style="triangle;whiteSpace=wrap;html=1;align=left;" parent="1" vertex="1">
          <mxGeometry x="-140" y="40" width="60" height="80" as="geometry" />
        </mxCell>
        <mxCell id="GCO7xrDp6TmdYOZJOnFd-12" value="$$\frac{tD*s}{1+tD*s}$$" style="whiteSpace=wrap;html=1;aspect=fixed;" parent="1" vertex="1">
          <mxGeometry x="680" y="160" width="80" height="80" as="geometry" />
        </mxCell>
        <mxCell id="GCO7xrDp6TmdYOZJOnFd-119" value="$$\frac{1}{1+t1*s}$$" style="whiteSpace=wrap;html=1;aspect=fixed;" parent="1" vertex="1">
          <mxGeometry x="240" y="40" width="80" height="80" as="geometry" />
        </mxCell>
        <mxCell id="GCO7xrDp6TmdYOZJOnFd-126" value="$$\frac{MAcc}{1+t4*s}$$" style="rounded=0;whiteSpace=wrap;html=1;" parent="1" vertex="1">
          <mxGeometry x="400" y="280" width="80" height="80" as="geometry" />
        </mxCell>
        <mxCell id="KOxhOBrrnecnhVOKgOav-29" value="" style="edgeStyle=orthogonalEdgeStyle;rounded=0;orthogonalLoop=1;jettySize=auto;html=1;" parent="1" source="pcb0Rrb9AqgbB0oOaPCg-3" target="E1HJxTZ1KoTLzzK9DHDM-2" edge="1">
          <mxGeometry relative="1" as="geometry" />
        </mxCell>
        <mxCell id="pcb0Rrb9AqgbB0oOaPCg-3" value="$$\frac{1}{tI1*s}$$" style="whiteSpace=wrap;html=1;aspect=fixed;" parent="1" vertex="1">
          <mxGeometry x="960" y="160" width="80" height="80" as="geometry" />
        </mxCell>
        <mxCell id="pcb0Rrb9AqgbB0oOaPCg-23" value="&lt;font style=&quot;font-size: 10px;&quot;&gt;$$VPssPu$$&lt;/font&gt;" style="triangle;whiteSpace=wrap;html=1;align=left;" parent="1" vertex="1">
          <mxGeometry x="2039" y="280" width="60" height="80" as="geometry" />
        </mxCell>
        <mxCell id="KOxhOBrrnecnhVOKgOav-30" value="" style="edgeStyle=orthogonalEdgeStyle;rounded=0;orthogonalLoop=1;jettySize=auto;html=1;" parent="1" source="E1HJxTZ1KoTLzzK9DHDM-2" target="5vP0ZJHYgd1w3xuM4kYP-27" edge="1">
          <mxGeometry relative="1" as="geometry" />
        </mxCell>
        <mxCell id="E1HJxTZ1KoTLzzK9DHDM-2" value="$$\frac{1}{tI2*s}$$" style="whiteSpace=wrap;html=1;aspect=fixed;" parent="1" vertex="1">
          <mxGeometry x="1120" y="160" width="80" height="80" as="geometry" />
        </mxCell>
        <mxCell id="E1HJxTZ1KoTLzzK9DHDM-9" value="" style="edgeStyle=orthogonalEdgeStyle;rounded=0;orthogonalLoop=1;jettySize=auto;html=1;" parent="1" source="E1HJxTZ1KoTLzzK9DHDM-3" target="pcb0Rrb9AqgbB0oOaPCg-23" edge="1">
          <mxGeometry relative="1" as="geometry" />
        </mxCell>
        <mxCell id="E1HJxTZ1KoTLzzK9DHDM-3" value="" style="whiteSpace=wrap;html=1;aspect=fixed;" parent="1" vertex="1">
          <mxGeometry x="1919" y="280" width="80" height="80" as="geometry" />
        </mxCell>
        <mxCell id="E1HJxTZ1KoTLzzK9DHDM-4" value="" style="endArrow=none;html=1;" parent="1" edge="1">
          <mxGeometry width="50" height="50" relative="1" as="geometry">
            <mxPoint x="1947" y="335" as="sourcePoint" />
            <mxPoint x="1971" y="305" as="targetPoint" />
          </mxGeometry>
        </mxCell>
        <mxCell id="E1HJxTZ1KoTLzzK9DHDM-5" value="" style="endArrow=none;html=1;" parent="1" edge="1">
          <mxGeometry width="50" height="50" relative="1" as="geometry">
            <mxPoint x="1971" y="305" as="sourcePoint" />
            <mxPoint x="1991" y="305" as="targetPoint" />
          </mxGeometry>
        </mxCell>
        <mxCell id="E1HJxTZ1KoTLzzK9DHDM-6" value="&lt;font style=&quot;font-size: 8px;&quot;&gt;$$VPssMaxPu$$&lt;/font&gt;" style="text;html=1;strokeColor=none;fillColor=none;align=center;verticalAlign=middle;whiteSpace=wrap;rounded=0;fontSize=15;" parent="1" vertex="1">
          <mxGeometry x="1963" y="250" width="60" height="30" as="geometry" />
        </mxCell>
        <mxCell id="E1HJxTZ1KoTLzzK9DHDM-7" value="" style="endArrow=none;html=1;" parent="1" edge="1">
          <mxGeometry width="50" height="50" relative="1" as="geometry">
            <mxPoint x="1947" y="335" as="sourcePoint" />
            <mxPoint x="1927" y="335" as="targetPoint" />
          </mxGeometry>
        </mxCell>
        <mxCell id="E1HJxTZ1KoTLzzK9DHDM-8" value="&lt;font style=&quot;font-size: 8px;&quot;&gt;$$VPssMinPu$$&lt;/font&gt;" style="text;html=1;strokeColor=none;fillColor=none;align=center;verticalAlign=middle;whiteSpace=wrap;rounded=0;fontSize=15;" parent="1" vertex="1">
          <mxGeometry x="1899" y="360" width="60" height="30" as="geometry" />
        </mxCell>
        <mxCell id="5vP0ZJHYgd1w3xuM4kYP-1" value="&lt;font style=&quot;font-size: 7px;&quot;&gt;$$omegaPu$$&lt;/font&gt;" style="triangle;whiteSpace=wrap;html=1;align=left;" parent="1" vertex="1">
          <mxGeometry x="-140" y="200" width="60" height="80" as="geometry" />
        </mxCell>
        <mxCell id="5vP0ZJHYgd1w3xuM4kYP-2" value="&lt;font style=&quot;font-size: 7px;&quot;&gt;$$omegaRefPu$$&lt;/font&gt;" style="triangle;whiteSpace=wrap;html=1;align=left;" parent="1" vertex="1">
          <mxGeometry x="-140" y="360" width="60" height="80" as="geometry" />
        </mxCell>
        <mxCell id="KOxhOBrrnecnhVOKgOav-14" value="" style="edgeStyle=orthogonalEdgeStyle;rounded=0;orthogonalLoop=1;jettySize=auto;html=1;" parent="1" source="5vP0ZJHYgd1w3xuM4kYP-3" target="5vP0ZJHYgd1w3xuM4kYP-11" edge="1">
          <mxGeometry relative="1" as="geometry" />
        </mxCell>
        <mxCell id="5vP0ZJHYgd1w3xuM4kYP-3" value="&lt;table style=&quot;font-size: 10px;&quot;&gt;&lt;tbody&gt;&lt;tr&gt;&lt;td&gt;&lt;font style=&quot;font-size: 10px;&quot;&gt;$$KOmega$$&lt;/font&gt;&lt;/td&gt;&lt;/tr&gt;&lt;tr&gt;&lt;td&gt;&lt;font style=&quot;font-size: 10px;&quot;&gt;$$KOmegaRef$$&lt;/font&gt;&lt;/td&gt;&lt;/tr&gt;&lt;/tbody&gt;&lt;/table&gt;" style="whiteSpace=wrap;html=1;aspect=fixed;" parent="1" vertex="1">
          <mxGeometry y="280" width="80" height="80" as="geometry" />
        </mxCell>
        <mxCell id="KOxhOBrrnecnhVOKgOav-18" value="" style="edgeStyle=orthogonalEdgeStyle;rounded=0;orthogonalLoop=1;jettySize=auto;html=1;" parent="1" source="5vP0ZJHYgd1w3xuM4kYP-5" target="GCO7xrDp6TmdYOZJOnFd-119" edge="1">
          <mxGeometry relative="1" as="geometry" />
        </mxCell>
        <mxCell id="5vP0ZJHYgd1w3xuM4kYP-5" value="" style="whiteSpace=wrap;html=1;aspect=fixed;" parent="1" vertex="1">
          <mxGeometry x="120" y="40" width="80" height="80" as="geometry" />
        </mxCell>
        <mxCell id="5vP0ZJHYgd1w3xuM4kYP-6" value="" style="endArrow=none;html=1;" parent="1" edge="1">
          <mxGeometry width="50" height="50" relative="1" as="geometry">
            <mxPoint x="148" y="95" as="sourcePoint" />
            <mxPoint x="172" y="65" as="targetPoint" />
          </mxGeometry>
        </mxCell>
        <mxCell id="5vP0ZJHYgd1w3xuM4kYP-7" value="" style="endArrow=none;html=1;" parent="1" edge="1">
          <mxGeometry width="50" height="50" relative="1" as="geometry">
            <mxPoint x="172" y="65" as="sourcePoint" />
            <mxPoint x="192" y="65" as="targetPoint" />
          </mxGeometry>
        </mxCell>
        <mxCell id="5vP0ZJHYgd1w3xuM4kYP-8" value="&lt;font style=&quot;font-size: 8px;&quot;&gt;$$PGenMaxPu$$&lt;/font&gt;" style="text;html=1;strokeColor=none;fillColor=none;align=center;verticalAlign=middle;whiteSpace=wrap;rounded=0;fontSize=15;" parent="1" vertex="1">
          <mxGeometry x="164" y="10" width="60" height="30" as="geometry" />
        </mxCell>
        <mxCell id="5vP0ZJHYgd1w3xuM4kYP-9" value="" style="endArrow=none;html=1;" parent="1" edge="1">
          <mxGeometry width="50" height="50" relative="1" as="geometry">
            <mxPoint x="148" y="95" as="sourcePoint" />
            <mxPoint x="128" y="95" as="targetPoint" />
          </mxGeometry>
        </mxCell>
        <mxCell id="5vP0ZJHYgd1w3xuM4kYP-10" value="&lt;font style=&quot;font-size: 8px;&quot;&gt;$$PGenMinPu$$&lt;/font&gt;" style="text;html=1;strokeColor=none;fillColor=none;align=center;verticalAlign=middle;whiteSpace=wrap;rounded=0;fontSize=15;" parent="1" vertex="1">
          <mxGeometry x="100" y="120" width="60" height="30" as="geometry" />
        </mxCell>
        <mxCell id="KOxhOBrrnecnhVOKgOav-15" value="" style="edgeStyle=orthogonalEdgeStyle;rounded=0;orthogonalLoop=1;jettySize=auto;html=1;" parent="1" source="5vP0ZJHYgd1w3xuM4kYP-11" target="5vP0ZJHYgd1w3xuM4kYP-21" edge="1">
          <mxGeometry relative="1" as="geometry" />
        </mxCell>
        <mxCell id="5vP0ZJHYgd1w3xuM4kYP-11" value="" style="whiteSpace=wrap;html=1;aspect=fixed;" parent="1" vertex="1">
          <mxGeometry x="120" y="280" width="80" height="80" as="geometry" />
        </mxCell>
        <mxCell id="5vP0ZJHYgd1w3xuM4kYP-12" value="" style="endArrow=none;html=1;" parent="1" edge="1">
          <mxGeometry width="50" height="50" relative="1" as="geometry">
            <mxPoint x="148" y="335" as="sourcePoint" />
            <mxPoint x="172" y="305" as="targetPoint" />
          </mxGeometry>
        </mxCell>
        <mxCell id="5vP0ZJHYgd1w3xuM4kYP-13" value="" style="endArrow=none;html=1;" parent="1" edge="1">
          <mxGeometry width="50" height="50" relative="1" as="geometry">
            <mxPoint x="172" y="305" as="sourcePoint" />
            <mxPoint x="192" y="305" as="targetPoint" />
          </mxGeometry>
        </mxCell>
        <mxCell id="5vP0ZJHYgd1w3xuM4kYP-14" value="&lt;font style=&quot;font-size: 7px;&quot;&gt;$$OmegaMaxPu$$&lt;/font&gt;" style="text;html=1;strokeColor=none;fillColor=none;align=center;verticalAlign=middle;whiteSpace=wrap;rounded=0;fontSize=15;" parent="1" vertex="1">
          <mxGeometry x="164" y="250" width="60" height="30" as="geometry" />
        </mxCell>
        <mxCell id="5vP0ZJHYgd1w3xuM4kYP-15" value="" style="endArrow=none;html=1;" parent="1" edge="1">
          <mxGeometry width="50" height="50" relative="1" as="geometry">
            <mxPoint x="148" y="335" as="sourcePoint" />
            <mxPoint x="128" y="335" as="targetPoint" />
          </mxGeometry>
        </mxCell>
        <mxCell id="5vP0ZJHYgd1w3xuM4kYP-16" value="&lt;font style=&quot;font-size: 7px;&quot;&gt;$$OmegaMinPu$$&lt;/font&gt;" style="text;html=1;strokeColor=none;fillColor=none;align=center;verticalAlign=middle;whiteSpace=wrap;rounded=0;fontSize=15;" parent="1" vertex="1">
          <mxGeometry x="100" y="360" width="60" height="30" as="geometry" />
        </mxCell>
        <mxCell id="5vP0ZJHYgd1w3xuM4kYP-19" value="$$\frac{Ks1}{1+t3*s}$$" style="rounded=0;whiteSpace=wrap;html=1;" parent="1" vertex="1">
          <mxGeometry x="400" y="40" width="80" height="80" as="geometry" />
        </mxCell>
        <mxCell id="5vP0ZJHYgd1w3xuM4kYP-21" value="$$\frac{1}{1+t2*s}$$" style="whiteSpace=wrap;html=1;aspect=fixed;" parent="1" vertex="1">
          <mxGeometry x="240" y="280" width="80" height="80" as="geometry" />
        </mxCell>
        <mxCell id="KOxhOBrrnecnhVOKgOav-24" value="" style="edgeStyle=orthogonalEdgeStyle;rounded=0;orthogonalLoop=1;jettySize=auto;html=1;" parent="1" source="5vP0ZJHYgd1w3xuM4kYP-23" target="GCO7xrDp6TmdYOZJOnFd-12" edge="1">
          <mxGeometry relative="1" as="geometry" />
        </mxCell>
        <mxCell id="5vP0ZJHYgd1w3xuM4kYP-23" value="&lt;table style=&quot;font-size: 10px;&quot;&gt;&lt;tbody&gt;&lt;tr&gt;&lt;td&gt;&lt;font style=&quot;font-size: 10px;&quot;&gt;$$1$$&lt;/font&gt;&lt;/td&gt;&lt;/tr&gt;&lt;tr&gt;&lt;td&gt;&lt;font style=&quot;font-size: 10px;&quot;&gt;-1&lt;/font&gt;&lt;/td&gt;&lt;/tr&gt;&lt;tr&gt;&lt;td&gt;&lt;font style=&quot;font-size: 10px;&quot;&gt;$$1$$&lt;/font&gt;&lt;/td&gt;&lt;/tr&gt;&lt;/tbody&gt;&lt;/table&gt;" style="whiteSpace=wrap;html=1;aspect=fixed;" parent="1" vertex="1">
          <mxGeometry x="560" y="160" width="80" height="80" as="geometry" />
        </mxCell>
        <mxCell id="KOxhOBrrnecnhVOKgOav-26" value="" style="edgeStyle=orthogonalEdgeStyle;rounded=0;orthogonalLoop=1;jettySize=auto;html=1;entryX=0;entryY=0.5;entryDx=0;entryDy=0;" parent="1" source="5vP0ZJHYgd1w3xuM4kYP-24" target="pcb0Rrb9AqgbB0oOaPCg-3" edge="1">
          <mxGeometry relative="1" as="geometry">
            <mxPoint x="920" y="200" as="targetPoint" />
          </mxGeometry>
        </mxCell>
        <mxCell id="5vP0ZJHYgd1w3xuM4kYP-24" value="" style="ellipse;whiteSpace=wrap;html=1;aspect=fixed;" parent="1" vertex="1">
          <mxGeometry x="820" y="180" width="40" height="40" as="geometry" />
        </mxCell>
        <mxCell id="5vP0ZJHYgd1w3xuM4kYP-25" value="+" style="text;html=1;strokeColor=none;fillColor=none;align=center;verticalAlign=middle;whiteSpace=wrap;rounded=0;fontSize=20;" parent="1" vertex="1">
          <mxGeometry x="780" y="169" width="60" height="31" as="geometry" />
        </mxCell>
        <mxCell id="5vP0ZJHYgd1w3xuM4kYP-26" value="-" style="text;html=1;strokeColor=none;fillColor=none;align=center;verticalAlign=middle;whiteSpace=wrap;rounded=0;fontSize=20;" parent="1" vertex="1">
          <mxGeometry x="840" y="220" width="60" height="30" as="geometry" />
        </mxCell>
        <mxCell id="KOxhOBrrnecnhVOKgOav-31" value="" style="edgeStyle=orthogonalEdgeStyle;rounded=0;orthogonalLoop=1;jettySize=auto;html=1;" parent="1" source="5vP0ZJHYgd1w3xuM4kYP-27" target="5vP0ZJHYgd1w3xuM4kYP-28" edge="1">
          <mxGeometry relative="1" as="geometry" />
        </mxCell>
        <mxCell id="0gLSmIiKoLwcPXZTZuxx-14" value="" style="edgeStyle=orthogonalEdgeStyle;rounded=0;orthogonalLoop=1;jettySize=auto;html=1;" edge="1" parent="1" source="5vP0ZJHYgd1w3xuM4kYP-27" target="5vP0ZJHYgd1w3xuM4kYP-28">
          <mxGeometry relative="1" as="geometry" />
        </mxCell>
        <mxCell id="5vP0ZJHYgd1w3xuM4kYP-27" value="$$\frac{Ki3}{tI3*s}$$" style="whiteSpace=wrap;html=1;aspect=fixed;" parent="1" vertex="1">
          <mxGeometry x="1280" y="160" width="80" height="80" as="geometry" />
        </mxCell>
        <mxCell id="5vP0ZJHYgd1w3xuM4kYP-28" value="$$\frac{Ki4}{tI4*s}$$" style="whiteSpace=wrap;html=1;aspect=fixed;" parent="1" vertex="1">
          <mxGeometry x="1440" y="160" width="80" height="80" as="geometry" />
        </mxCell>
        <mxCell id="KOxhOBrrnecnhVOKgOav-1" value="" style="whiteSpace=wrap;html=1;aspect=fixed;" parent="1" vertex="1">
          <mxGeometry x="1800" y="280" width="80" height="80" as="geometry" />
        </mxCell>
        <mxCell id="KOxhOBrrnecnhVOKgOav-2" value="" style="endArrow=none;html=1;startArrow=none;" parent="1" source="KOxhOBrrnecnhVOKgOav-10" edge="1">
          <mxGeometry width="50" height="50" relative="1" as="geometry">
            <mxPoint x="1860" y="320" as="sourcePoint" />
            <mxPoint x="1880" y="320" as="targetPoint" />
          </mxGeometry>
        </mxCell>
        <mxCell id="KOxhOBrrnecnhVOKgOav-3" value="" style="endArrow=none;html=1;" parent="1" edge="1">
          <mxGeometry width="50" height="50" relative="1" as="geometry">
            <mxPoint x="1791" y="300" as="sourcePoint" />
            <mxPoint x="1821" y="300" as="targetPoint" />
          </mxGeometry>
        </mxCell>
        <mxCell id="KOxhOBrrnecnhVOKgOav-4" value="" style="endArrow=none;html=1;" parent="1" edge="1">
          <mxGeometry width="50" height="50" relative="1" as="geometry">
            <mxPoint x="1790" y="319.8" as="sourcePoint" />
            <mxPoint x="1820" y="319.8" as="targetPoint" />
          </mxGeometry>
        </mxCell>
        <mxCell id="KOxhOBrrnecnhVOKgOav-5" value="" style="endArrow=none;html=1;" parent="1" edge="1">
          <mxGeometry width="50" height="50" relative="1" as="geometry">
            <mxPoint x="1790" y="339.99999999999994" as="sourcePoint" />
            <mxPoint x="1820" y="339.99999999999994" as="targetPoint" />
          </mxGeometry>
        </mxCell>
        <mxCell id="KOxhOBrrnecnhVOKgOav-6" value="" style="shape=waypoint;sketch=0;fillStyle=solid;size=4;pointerEvents=1;points=[];fillColor=none;resizable=0;rotatable=0;perimeter=centerPerimeter;snapToPoint=1;" parent="1" vertex="1">
          <mxGeometry x="1810" y="290" width="20" height="20" as="geometry" />
        </mxCell>
        <mxCell id="KOxhOBrrnecnhVOKgOav-7" value="" style="shape=waypoint;sketch=0;fillStyle=solid;size=4;pointerEvents=1;points=[];fillColor=none;resizable=0;rotatable=0;perimeter=centerPerimeter;snapToPoint=1;" parent="1" vertex="1">
          <mxGeometry x="1810" y="310" width="20" height="20" as="geometry" />
        </mxCell>
        <mxCell id="KOxhOBrrnecnhVOKgOav-8" value="" style="shape=waypoint;sketch=0;fillStyle=solid;size=4;pointerEvents=1;points=[];fillColor=none;resizable=0;rotatable=0;perimeter=centerPerimeter;snapToPoint=1;" parent="1" vertex="1">
          <mxGeometry x="1810" y="330" width="20" height="20" as="geometry" />
        </mxCell>
        <mxCell id="KOxhOBrrnecnhVOKgOav-9" value="" style="endArrow=none;html=1;" parent="1" target="KOxhOBrrnecnhVOKgOav-10" edge="1">
          <mxGeometry width="50" height="50" relative="1" as="geometry">
            <mxPoint x="1860" y="320" as="sourcePoint" />
            <mxPoint x="1880" y="320" as="targetPoint" />
          </mxGeometry>
        </mxCell>
        <mxCell id="KOxhOBrrnecnhVOKgOav-10" value="" style="shape=waypoint;sketch=0;fillStyle=solid;size=4;pointerEvents=1;points=[];fillColor=none;resizable=0;rotatable=0;perimeter=centerPerimeter;snapToPoint=1;" parent="1" vertex="1">
          <mxGeometry x="1851" y="310" width="20" height="20" as="geometry" />
        </mxCell>
        <mxCell id="KOxhOBrrnecnhVOKgOav-11" value="" style="endArrow=none;html=1;" parent="1" edge="1">
          <mxGeometry width="50" height="50" relative="1" as="geometry">
            <mxPoint x="1820" y="330" as="sourcePoint" />
            <mxPoint x="1860" y="320" as="targetPoint" />
          </mxGeometry>
        </mxCell>
        <mxCell id="KOxhOBrrnecnhVOKgOav-12" value="" style="endArrow=classic;html=1;rounded=0;exitX=1;exitY=0.5;exitDx=0;exitDy=0;entryX=0;entryY=0.25;entryDx=0;entryDy=0;" parent="1" source="5vP0ZJHYgd1w3xuM4kYP-1" target="5vP0ZJHYgd1w3xuM4kYP-3" edge="1">
          <mxGeometry width="50" height="50" relative="1" as="geometry">
            <mxPoint x="130" y="220" as="sourcePoint" />
            <mxPoint x="180" y="170" as="targetPoint" />
            <Array as="points">
              <mxPoint x="-40" y="240" />
              <mxPoint x="-40" y="300" />
            </Array>
          </mxGeometry>
        </mxCell>
        <mxCell id="KOxhOBrrnecnhVOKgOav-13" value="" style="endArrow=classic;html=1;rounded=0;exitX=1;exitY=0.5;exitDx=0;exitDy=0;entryX=0;entryY=0.75;entryDx=0;entryDy=0;" parent="1" source="5vP0ZJHYgd1w3xuM4kYP-2" target="5vP0ZJHYgd1w3xuM4kYP-3" edge="1">
          <mxGeometry width="50" height="50" relative="1" as="geometry">
            <mxPoint x="-70" y="400" as="sourcePoint" />
            <mxPoint x="-20" y="350" as="targetPoint" />
            <Array as="points">
              <mxPoint x="-40" y="400" />
              <mxPoint x="-40" y="340" />
            </Array>
          </mxGeometry>
        </mxCell>
        <mxCell id="KOxhOBrrnecnhVOKgOav-21" value="" style="endArrow=classic;html=1;rounded=0;exitX=1;exitY=0.5;exitDx=0;exitDy=0;entryX=0;entryY=0.5;entryDx=0;entryDy=0;" parent="1" source="GCO7xrDp6TmdYOZJOnFd-2" target="5vP0ZJHYgd1w3xuM4kYP-5" edge="1">
          <mxGeometry width="50" height="50" relative="1" as="geometry">
            <mxPoint x="130" y="220" as="sourcePoint" />
            <mxPoint x="180" y="170" as="targetPoint" />
          </mxGeometry>
        </mxCell>
        <mxCell id="KOxhOBrrnecnhVOKgOav-22" value="" style="endArrow=classic;html=1;rounded=0;exitX=1;exitY=0.5;exitDx=0;exitDy=0;entryX=0;entryY=0.25;entryDx=0;entryDy=0;" parent="1" source="5vP0ZJHYgd1w3xuM4kYP-19" target="5vP0ZJHYgd1w3xuM4kYP-23" edge="1">
          <mxGeometry width="50" height="50" relative="1" as="geometry">
            <mxPoint x="50" y="220" as="sourcePoint" />
            <mxPoint x="100" y="170" as="targetPoint" />
            <Array as="points">
              <mxPoint x="520" y="80" />
              <mxPoint x="520" y="180" />
            </Array>
          </mxGeometry>
        </mxCell>
        <mxCell id="KOxhOBrrnecnhVOKgOav-23" value="" style="endArrow=classic;html=1;rounded=0;exitX=1;exitY=0.5;exitDx=0;exitDy=0;entryX=0;entryY=0.75;entryDx=0;entryDy=0;" parent="1" source="GCO7xrDp6TmdYOZJOnFd-126" target="5vP0ZJHYgd1w3xuM4kYP-23" edge="1">
          <mxGeometry width="50" height="50" relative="1" as="geometry">
            <mxPoint x="500" y="322" as="sourcePoint" />
            <mxPoint x="550" y="272" as="targetPoint" />
            <Array as="points">
              <mxPoint x="520" y="320" />
              <mxPoint x="520" y="220" />
            </Array>
          </mxGeometry>
        </mxCell>
        <mxCell id="KOxhOBrrnecnhVOKgOav-25" value="" style="endArrow=classic;html=1;rounded=0;exitX=1;exitY=0.5;exitDx=0;exitDy=0;entryX=0;entryY=0.5;entryDx=0;entryDy=0;" parent="1" source="GCO7xrDp6TmdYOZJOnFd-12" target="5vP0ZJHYgd1w3xuM4kYP-24" edge="1">
          <mxGeometry width="50" height="50" relative="1" as="geometry">
            <mxPoint x="710" y="220" as="sourcePoint" />
            <mxPoint x="760" y="170" as="targetPoint" />
          </mxGeometry>
        </mxCell>
        <mxCell id="KOxhOBrrnecnhVOKgOav-34" value="" style="endArrow=classic;html=1;rounded=0;exitX=1;exitY=0.5;exitDx=0;exitDy=0;entryX=0;entryY=0.5;entryDx=0;entryDy=0;" parent="1" source="KOxhOBrrnecnhVOKgOav-1" target="E1HJxTZ1KoTLzzK9DHDM-3" edge="1">
          <mxGeometry width="50" height="50" relative="1" as="geometry">
            <mxPoint x="1880" y="271" as="sourcePoint" />
            <mxPoint x="1930" y="221" as="targetPoint" />
          </mxGeometry>
        </mxCell>
        <mxCell id="KOxhOBrrnecnhVOKgOav-35" value="$$0$$" style="rounded=0;whiteSpace=wrap;html=1;" parent="1" vertex="1">
          <mxGeometry x="1640" y="400" width="80" height="80" as="geometry" />
        </mxCell>
        <mxCell id="KOxhOBrrnecnhVOKgOav-36" value="" style="endArrow=classic;html=1;rounded=0;exitX=1;exitY=0.5;exitDx=0;exitDy=0;entryX=0;entryY=0.75;entryDx=0;entryDy=0;" parent="1" source="KOxhOBrrnecnhVOKgOav-35" target="KOxhOBrrnecnhVOKgOav-1" edge="1">
          <mxGeometry width="50" height="50" relative="1" as="geometry">
            <mxPoint x="1740" y="360" as="sourcePoint" />
            <mxPoint x="1790" y="310" as="targetPoint" />
            <Array as="points">
              <mxPoint x="1760" y="440" />
              <mxPoint x="1760" y="340" />
            </Array>
          </mxGeometry>
        </mxCell>
        <mxCell id="KOxhOBrrnecnhVOKgOav-44" value="" style="whiteSpace=wrap;html=1;aspect=fixed;" parent="1" vertex="1">
          <mxGeometry x="1640" y="280" width="80" height="80" as="geometry" />
        </mxCell>
        <mxCell id="KOxhOBrrnecnhVOKgOav-45" value="" style="endArrow=classic;html=1;" parent="1" edge="1">
          <mxGeometry width="50" height="50" relative="1" as="geometry">
            <mxPoint x="1655" y="349.76" as="sourcePoint" />
            <mxPoint x="1655" y="289.76" as="targetPoint" />
          </mxGeometry>
        </mxCell>
        <mxCell id="KOxhOBrrnecnhVOKgOav-46" value="" style="endArrow=classic;html=1;" parent="1" edge="1">
          <mxGeometry width="50" height="50" relative="1" as="geometry">
            <mxPoint x="1655" y="349.76" as="sourcePoint" />
            <mxPoint x="1715" y="349.76" as="targetPoint" />
          </mxGeometry>
        </mxCell>
        <mxCell id="KOxhOBrrnecnhVOKgOav-47" value="" style="endArrow=none;html=1;" parent="1" edge="1">
          <mxGeometry width="50" height="50" relative="1" as="geometry">
            <mxPoint x="1645" y="336.76" as="sourcePoint" />
            <mxPoint x="1695" y="326.76" as="targetPoint" />
          </mxGeometry>
        </mxCell>
        <mxCell id="KOxhOBrrnecnhVOKgOav-48" value="" style="endArrow=none;html=1;" parent="1" edge="1">
          <mxGeometry width="50" height="50" relative="1" as="geometry">
            <mxPoint x="1664" y="314.76" as="sourcePoint" />
            <mxPoint x="1714" y="304.76" as="targetPoint" />
          </mxGeometry>
        </mxCell>
        <mxCell id="KOxhOBrrnecnhVOKgOav-49" value="" style="endArrow=none;html=1;jumpSize=4;" parent="1" edge="1">
          <mxGeometry width="50" height="50" relative="1" as="geometry">
            <mxPoint x="1695" y="308.76" as="sourcePoint" />
            <mxPoint x="1695" y="326.76" as="targetPoint" />
          </mxGeometry>
        </mxCell>
        <mxCell id="KOxhOBrrnecnhVOKgOav-50" value="" style="endArrow=none;html=1;jumpSize=4;" parent="1" edge="1">
          <mxGeometry width="50" height="50" relative="1" as="geometry">
            <mxPoint x="1664" y="314.76" as="sourcePoint" />
            <mxPoint x="1664" y="332.76" as="targetPoint" />
          </mxGeometry>
        </mxCell>
        <mxCell id="KOxhOBrrnecnhVOKgOav-52" value="" style="endArrow=classic;html=1;rounded=0;exitX=1;exitY=0.5;exitDx=0;exitDy=0;entryX=0;entryY=0.5;entryDx=0;entryDy=0;" parent="1" source="KOxhOBrrnecnhVOKgOav-44" target="KOxhOBrrnecnhVOKgOav-1" edge="1">
          <mxGeometry width="50" height="50" relative="1" as="geometry">
            <mxPoint x="1690" y="290" as="sourcePoint" />
            <mxPoint x="1740" y="240" as="targetPoint" />
          </mxGeometry>
        </mxCell>
        <mxCell id="KOxhOBrrnecnhVOKgOav-53" value="" style="endArrow=classic;html=1;rounded=0;exitX=1;exitY=0.5;exitDx=0;exitDy=0;entryX=0;entryY=0.5;entryDx=0;entryDy=0;" parent="1" source="GCO7xrDp6TmdYOZJOnFd-2" target="KOxhOBrrnecnhVOKgOav-44" edge="1">
          <mxGeometry width="50" height="50" relative="1" as="geometry">
            <mxPoint x="730" y="290" as="sourcePoint" />
            <mxPoint x="720" y="480" as="targetPoint" />
            <Array as="points">
              <mxPoint y="80" />
              <mxPoint y="160" />
              <mxPoint x="-200" y="160" />
              <mxPoint x="-200" y="480" />
              <mxPoint x="1600" y="480" />
              <mxPoint x="1600" y="320" />
            </Array>
          </mxGeometry>
        </mxCell>
        <mxCell id="0gLSmIiKoLwcPXZTZuxx-1" value="" style="endArrow=classic;html=1;rounded=0;exitX=1;exitY=0.5;exitDx=0;exitDy=0;entryX=0;entryY=0.5;entryDx=0;entryDy=0;" edge="1" parent="1" source="GCO7xrDp6TmdYOZJOnFd-119" target="5vP0ZJHYgd1w3xuM4kYP-19">
          <mxGeometry width="50" height="50" relative="1" as="geometry">
            <mxPoint x="430" y="210" as="sourcePoint" />
            <mxPoint x="480" y="160" as="targetPoint" />
          </mxGeometry>
        </mxCell>
        <mxCell id="0gLSmIiKoLwcPXZTZuxx-2" value="" style="endArrow=classic;html=1;rounded=0;exitX=1;exitY=0.5;exitDx=0;exitDy=0;entryX=0;entryY=0.5;entryDx=0;entryDy=0;" edge="1" parent="1" source="5vP0ZJHYgd1w3xuM4kYP-21" target="GCO7xrDp6TmdYOZJOnFd-126">
          <mxGeometry width="50" height="50" relative="1" as="geometry">
            <mxPoint x="430" y="210" as="sourcePoint" />
            <mxPoint x="480" y="160" as="targetPoint" />
          </mxGeometry>
        </mxCell>
        <mxCell id="0gLSmIiKoLwcPXZTZuxx-3" value="" style="endArrow=classic;html=1;rounded=0;exitX=1;exitY=0.5;exitDx=0;exitDy=0;entryX=0;entryY=0.5;entryDx=0;entryDy=0;" edge="1" parent="1" source="GCO7xrDp6TmdYOZJOnFd-119" target="5vP0ZJHYgd1w3xuM4kYP-23">
          <mxGeometry width="50" height="50" relative="1" as="geometry">
            <mxPoint x="430" y="210" as="sourcePoint" />
            <mxPoint x="480" y="160" as="targetPoint" />
            <Array as="points">
              <mxPoint x="360" y="80" />
              <mxPoint x="360" y="200" />
            </Array>
          </mxGeometry>
        </mxCell>
        <mxCell id="0gLSmIiKoLwcPXZTZuxx-4" value="$$+$$" style="rounded=0;whiteSpace=wrap;html=1;" vertex="1" parent="1">
          <mxGeometry x="960" y="280" width="80" height="80" as="geometry" />
        </mxCell>
        <mxCell id="0gLSmIiKoLwcPXZTZuxx-5" value="" style="endArrow=classic;html=1;rounded=0;exitX=0;exitY=0.5;exitDx=0;exitDy=0;entryX=0;entryY=0;entryDx=0;entryDy=0;" edge="1" parent="1" source="0gLSmIiKoLwcPXZTZuxx-4" target="5vP0ZJHYgd1w3xuM4kYP-26">
          <mxGeometry width="50" height="50" relative="1" as="geometry">
            <mxPoint x="1170" y="260" as="sourcePoint" />
            <mxPoint x="1220" y="210" as="targetPoint" />
            <Array as="points">
              <mxPoint x="840" y="320" />
            </Array>
          </mxGeometry>
        </mxCell>
        <mxCell id="0gLSmIiKoLwcPXZTZuxx-6" value="" style="endArrow=classic;html=1;rounded=0;exitX=1;exitY=0.5;exitDx=0;exitDy=0;entryX=1;entryY=0.25;entryDx=0;entryDy=0;" edge="1" parent="1" source="pcb0Rrb9AqgbB0oOaPCg-3" target="0gLSmIiKoLwcPXZTZuxx-4">
          <mxGeometry width="50" height="50" relative="1" as="geometry">
            <mxPoint x="1170" y="260" as="sourcePoint" />
            <mxPoint x="1220" y="210" as="targetPoint" />
            <Array as="points">
              <mxPoint x="1080" y="200" />
              <mxPoint x="1080" y="300" />
            </Array>
          </mxGeometry>
        </mxCell>
        <mxCell id="0gLSmIiKoLwcPXZTZuxx-7" value="" style="endArrow=classic;html=1;rounded=0;exitX=1;exitY=0.5;exitDx=0;exitDy=0;entryX=1;entryY=0.5;entryDx=0;entryDy=0;" edge="1" parent="1" source="E1HJxTZ1KoTLzzK9DHDM-2" target="0gLSmIiKoLwcPXZTZuxx-4">
          <mxGeometry width="50" height="50" relative="1" as="geometry">
            <mxPoint x="1160" y="260" as="sourcePoint" />
            <mxPoint x="1210" y="210" as="targetPoint" />
            <Array as="points">
              <mxPoint x="1240" y="200" />
              <mxPoint x="1240" y="320" />
            </Array>
          </mxGeometry>
        </mxCell>
        <mxCell id="0gLSmIiKoLwcPXZTZuxx-8" value="" style="endArrow=classic;html=1;rounded=0;exitX=1;exitY=0.5;exitDx=0;exitDy=0;entryX=1;entryY=0.75;entryDx=0;entryDy=0;" edge="1" parent="1" source="5vP0ZJHYgd1w3xuM4kYP-27" target="0gLSmIiKoLwcPXZTZuxx-4">
          <mxGeometry width="50" height="50" relative="1" as="geometry">
            <mxPoint x="1410" y="370" as="sourcePoint" />
            <mxPoint x="1052.857142857143" y="330" as="targetPoint" />
            <Array as="points">
              <mxPoint x="1400" y="200" />
              <mxPoint x="1400" y="340" />
              <mxPoint x="1080" y="340" />
            </Array>
          </mxGeometry>
        </mxCell>
        <mxCell id="0gLSmIiKoLwcPXZTZuxx-9" value="" style="endArrow=classic;html=1;rounded=0;exitX=1;exitY=0.5;exitDx=0;exitDy=0;entryX=1;entryY=1;entryDx=0;entryDy=0;" edge="1" parent="1" source="5vP0ZJHYgd1w3xuM4kYP-28" target="0gLSmIiKoLwcPXZTZuxx-4">
          <mxGeometry width="50" height="50" relative="1" as="geometry">
            <mxPoint x="1540" y="210" as="sourcePoint" />
            <mxPoint x="1600" y="320" as="targetPoint" />
            <Array as="points">
              <mxPoint x="1560" y="200" />
              <mxPoint x="1560" y="360" />
              <mxPoint x="1080" y="360" />
            </Array>
          </mxGeometry>
        </mxCell>
        <mxCell id="0gLSmIiKoLwcPXZTZuxx-10" value="$$+$$" style="rounded=0;whiteSpace=wrap;html=1;" vertex="1" parent="1">
          <mxGeometry x="1640" y="40" width="80" height="80" as="geometry" />
        </mxCell>
        <mxCell id="0gLSmIiKoLwcPXZTZuxx-13" value="" style="endArrow=classic;html=1;rounded=0;exitX=1;exitY=0.5;exitDx=0;exitDy=0;entryX=0;entryY=0.5;entryDx=0;entryDy=0;" edge="1" parent="1" source="E1HJxTZ1KoTLzzK9DHDM-2" target="0gLSmIiKoLwcPXZTZuxx-10">
          <mxGeometry width="50" height="50" relative="1" as="geometry">
            <mxPoint x="1220" y="171" as="sourcePoint" />
            <mxPoint x="1730.4761904761904" y="80" as="targetPoint" />
            <Array as="points">
              <mxPoint x="1240" y="200" />
              <mxPoint x="1240" y="80" />
              <mxPoint x="1580" y="80" />
            </Array>
          </mxGeometry>
        </mxCell>
        <mxCell id="0gLSmIiKoLwcPXZTZuxx-15" value="" style="endArrow=classic;html=1;rounded=0;exitX=1;exitY=0.5;exitDx=0;exitDy=0;entryX=0;entryY=0.25;entryDx=0;entryDy=0;" edge="1" parent="1" source="pcb0Rrb9AqgbB0oOaPCg-3" target="0gLSmIiKoLwcPXZTZuxx-10">
          <mxGeometry width="50" height="50" relative="1" as="geometry">
            <mxPoint x="1170" y="140" as="sourcePoint" />
            <mxPoint x="1490" y="40" as="targetPoint" />
            <Array as="points">
              <mxPoint x="1080" y="200" />
              <mxPoint x="1080" y="60" />
              <mxPoint x="1560" y="60" />
            </Array>
          </mxGeometry>
        </mxCell>
        <mxCell id="0gLSmIiKoLwcPXZTZuxx-16" value="" style="endArrow=classic;html=1;rounded=0;exitX=1;exitY=0.5;exitDx=0;exitDy=0;entryX=0;entryY=0;entryDx=0;entryDy=0;" edge="1" parent="1" source="5vP0ZJHYgd1w3xuM4kYP-24" target="0gLSmIiKoLwcPXZTZuxx-10">
          <mxGeometry width="50" height="50" relative="1" as="geometry">
            <mxPoint x="870" y="196" as="sourcePoint" />
            <mxPoint x="1120" y="10" as="targetPoint" />
            <Array as="points">
              <mxPoint x="920" y="200" />
              <mxPoint x="920" y="40" />
              <mxPoint x="1600" y="40" />
            </Array>
          </mxGeometry>
        </mxCell>
        <mxCell id="0gLSmIiKoLwcPXZTZuxx-17" value="" style="endArrow=classic;html=1;rounded=0;exitX=1;exitY=0.5;exitDx=0;exitDy=0;entryX=0;entryY=1;entryDx=0;entryDy=0;" edge="1" parent="1" source="5vP0ZJHYgd1w3xuM4kYP-28" target="0gLSmIiKoLwcPXZTZuxx-10">
          <mxGeometry width="50" height="50" relative="1" as="geometry">
            <mxPoint x="1530" y="209.5" as="sourcePoint" />
            <mxPoint x="1580" y="159.5" as="targetPoint" />
            <Array as="points">
              <mxPoint x="1560" y="200" />
              <mxPoint x="1560" y="120" />
            </Array>
          </mxGeometry>
        </mxCell>
        <mxCell id="0gLSmIiKoLwcPXZTZuxx-18" value="" style="endArrow=classic;html=1;rounded=0;exitX=1;exitY=0.5;exitDx=0;exitDy=0;entryX=0;entryY=0.75;entryDx=0;entryDy=0;" edge="1" parent="1" source="5vP0ZJHYgd1w3xuM4kYP-27" target="0gLSmIiKoLwcPXZTZuxx-10">
          <mxGeometry width="50" height="50" relative="1" as="geometry">
            <mxPoint x="1380" y="180" as="sourcePoint" />
            <mxPoint x="1500" y="120" as="targetPoint" />
            <Array as="points">
              <mxPoint x="1400" y="200" />
              <mxPoint x="1400" y="100" />
              <mxPoint x="1560" y="100" />
            </Array>
          </mxGeometry>
        </mxCell>
        <mxCell id="0gLSmIiKoLwcPXZTZuxx-19" value="" style="endArrow=classic;html=1;rounded=0;exitX=1;exitY=0.5;exitDx=0;exitDy=0;entryX=0;entryY=0.25;entryDx=0;entryDy=0;" edge="1" parent="1" source="0gLSmIiKoLwcPXZTZuxx-10" target="KOxhOBrrnecnhVOKgOav-1">
          <mxGeometry width="50" height="50" relative="1" as="geometry">
            <mxPoint x="1760" y="80" as="sourcePoint" />
            <mxPoint x="1810" y="30" as="targetPoint" />
            <Array as="points">
              <mxPoint x="1760" y="80" />
              <mxPoint x="1760" y="300" />
            </Array>
          </mxGeometry>
        </mxCell>
      </root>
    </mxGraphModel>
  </diagram>
</mxfile>
